<svg width="16" height="17" viewBox="0 0 16 17" fill="none"
     xmlns="http://www.w3.org/2000/svg">
    <path fill-rule="evenodd" clip-rule="evenodd"
          d="M8 2.07312C6.15905 2.07312 4.66667 3.5655 4.66667 5.40645C4.66667 7.2474 6.15905 8.73979 8 8.73979C9.84095 8.73979 11.3333 7.2474 11.3333 5.40645C11.3333 3.5655 9.84095 2.07312 8 2.07312ZM6 5.40645C6 4.30188 6.89543 3.40645 8 3.40645C9.10457 3.40645 10 4.30188 10 5.40645C10 6.51102 9.10457 7.40645 8 7.40645C6.89543 7.40645 6 6.51102 6 5.40645Z"
          fill="white"/>
    <path d="M5.33333 10.0731C4.44928 10.0731 3.60143 10.4243 2.97631 11.0494C2.35119 11.6746 2 12.5224 2 13.4065V14.7398C2 15.108 2.29848 15.4065 2.66667 15.4065C3.03486 15.4065 3.33333 15.108 3.33333 14.7398V13.4065C3.33333 12.876 3.54405 12.3673 3.91912 11.9922C4.29419 11.6172 4.8029 11.4065 5.33333 11.4065H10.6667C11.1971 11.4065 11.7058 11.6172 12.0809 11.9922C12.456 12.3673 12.6667 12.876 12.6667 13.4065V14.7398C12.6667 15.108 12.9651 15.4065 13.3333 15.4065C13.7015 15.4065 14 15.108 14 14.7398V13.4065C14 12.5224 13.6488 11.6746 13.0237 11.0494C12.3986 10.4243 11.5507 10.0731 10.6667 10.0731H5.33333Z"
          fill="white"/>
</svg>
