<svg width="20" height="21" viewBox="0 0 20 21" fill="none"
     xmlns="http://www.w3.org/2000/svg">
    <path fill-rule="evenodd" clip-rule="evenodd"
          d="M14.1666 2.40632C14.1666 1.94608 13.7935 1.57298 13.3333 1.57298C12.8731 1.57298 12.5 1.94608 12.5 2.40632V3.23965H7.49996V2.40632C7.49996 1.94608 7.12686 1.57298 6.66663 1.57298C6.20639 1.57298 5.83329 1.94608 5.83329 2.40632V3.23965H4.16663C2.78591 3.23965 1.66663 4.35894 1.66663 5.73965V17.4063C1.66663 18.787 2.78591 19.9063 4.16663 19.9063H15.8333C17.214 19.9063 18.3333 18.787 18.3333 17.4063V5.73965C18.3333 4.35894 17.214 3.23965 15.8333 3.23965H14.1666V2.40632ZM16.6666 8.23965V5.73965C16.6666 5.27941 16.2935 4.90632 15.8333 4.90632H14.1666V5.73965C14.1666 6.19989 13.7935 6.57298 13.3333 6.57298C12.8731 6.57298 12.5 6.19989 12.5 5.73965V4.90632H7.49996V5.73965C7.49996 6.19989 7.12686 6.57298 6.66663 6.57298C6.20639 6.57298 5.83329 6.19989 5.83329 5.73965V4.90632H4.16663C3.70639 4.90632 3.33329 5.27941 3.33329 5.73965V8.23965H16.6666ZM3.33329 9.90631H16.6666V17.4063C16.6666 17.8666 16.2935 18.2396 15.8333 18.2396H4.16663C3.70639 18.2396 3.33329 17.8666 3.33329 17.4063V9.90631Z"
          fill="white"/>
</svg>
