<svg width="24" height="25" viewBox="0 0 24 25" fill="none"
     xmlns="http://www.w3.org/2000/svg">
    <path d="M13 5.23965C13 4.68737 12.5523 4.23965 12 4.23965C11.4477 4.23965 11 4.68737 11 5.23965V11.2397H5C4.44772 11.2397 4 11.6874 4 12.2397C4 12.7919 4.44772 13.2397 5 13.2397H11V19.2397C11 19.7919 11.4477 20.2397 12 20.2397C12.5523 20.2397 13 19.7919 13 19.2397V13.2397H19C19.5523 13.2397 20 12.7919 20 12.2397C20 11.6874 19.5523 11.2397 19 11.2397H13V5.23965Z"
          fill="black"/>
</svg>
