<svg width="154" height="24" viewBox="0 0 154 24" fill="none"
     xmlns="http://www.w3.org/2000/svg">
    <path fill-rule="evenodd" clip-rule="evenodd"
          d="M90.4353 2.03481C90.4353 1.0578 91.2296 0.26577 92.2095 0.26577H104.629C105.458 0.26577 106.13 0.935946 106.13 1.76265C106.13 2.58935 105.458 3.25953 104.629 3.25953H93.4378V7.61409H100.671C101.5 7.61409 102.173 8.28427 102.173 9.11097C102.173 9.93768 101.5 10.6079 100.671 10.6079H92.2095C91.2296 10.6079 90.4353 9.81583 90.4353 8.83881V2.03481Z"
          fill="white"/>
    <path fill-rule="evenodd" clip-rule="evenodd"
          d="M90.4353 22.0386C90.4353 23.0157 91.2296 23.8077 92.2095 23.8077H104.629C105.458 23.8077 106.13 23.1375 106.13 22.3108C106.13 21.4841 105.458 20.8139 104.629 20.8139H93.4378V16.4594H100.671C101.5 16.4594 102.173 15.7892 102.173 14.9625C102.173 14.1358 101.5 13.4656 100.671 13.4656H92.2095C91.2296 13.4656 90.4353 14.2576 90.4353 15.2346V22.0386Z"
          fill="white"/>
    <path fill-rule="evenodd" clip-rule="evenodd"
          d="M4.12018 0.178425L7.66842 0.178394C12.4221 0.178394 18.4503 4.47825 18.4503 11.9691C18.4503 19.4228 12.1701 23.7691 6.71311 23.7691L4.12027 23.7691C2.08536 23.7691 0.435059 22.1243 0.435059 20.0949V3.85258C0.435059 1.82324 2.0852 0.178422 4.12018 0.178425ZM7.66846 3.17215L4.12018 3.17218C3.74314 3.17218 3.4376 3.47697 3.4376 3.85258V20.0949C3.4376 20.4705 3.74315 20.7753 4.12028 20.7753L6.71311 20.7753C10.8097 20.7753 15.4478 17.4873 15.4478 11.9691C15.4478 6.24135 10.8761 3.17218 7.66846 3.17215Z"
          fill="white"/>
    <path fill-rule="evenodd" clip-rule="evenodd"
          d="M23.7729 0.130159C24.6021 0.130159 25.2742 0.800335 25.2742 1.62704V16.4474C25.2742 18.3141 27.2695 20.8761 30.324 20.8761C32.5353 20.8761 33.9028 20.117 34.7235 19.2466C35.5811 18.337 35.9196 17.2249 35.9196 16.4474C35.9196 16.4474 36.8346 16.4474 37.4209 16.4474C38.0072 16.4474 38.9222 16.4474 38.9222 16.4474C38.9222 17.9678 38.3053 19.8185 36.911 21.2972C35.4798 22.8151 33.2988 23.8698 30.324 23.8698C25.6264 23.8698 22.2717 19.9826 22.2717 16.4474V1.62704C22.2717 0.800335 22.9438 0.130159 23.7729 0.130159ZM38.9222 16.4474V1.62704C38.9222 0.800335 38.25 0.130159 37.4209 0.130159C36.5917 0.130159 35.9196 0.800335 35.9196 1.62704V16.4474C35.9196 16.4474 36.8346 16.4474 37.4209 16.4474C38.0072 16.4474 38.9222 16.4474 38.9222 16.4474Z"
          fill="white"/>
    <path fill-rule="evenodd" clip-rule="evenodd"
          d="M46.0167 13.1159L58.0233 23.0545C58.6613 23.5825 59.6077 23.495 60.1374 22.8589C60.667 22.2228 60.5792 21.2791 59.9412 20.7511L45.9217 9.14627C44.7655 8.18921 43.0142 9.00907 43.0142 10.5074V22.311C43.0142 23.1377 43.6863 23.8079 44.5155 23.8079C45.3446 23.8079 46.0167 23.1377 46.0167 22.311V13.1159Z"
          fill="white"/>
    <path fill-rule="evenodd" clip-rule="evenodd"
          d="M137.46 13.1159L149.466 23.0545C150.104 23.5825 151.051 23.495 151.58 22.8589C152.11 22.2228 152.022 21.2791 151.384 20.7511L137.365 9.14627C136.208 8.18921 134.457 9.00907 134.457 10.5074V22.311C134.457 23.1377 135.129 23.8079 135.958 23.8079C136.788 23.8079 137.46 23.1377 137.46 22.311V13.1159Z"
          fill="white"/>
    <path fill-rule="evenodd" clip-rule="evenodd"
          d="M59.1195 10.8221L47.1129 0.883564C46.4749 0.355502 45.5284 0.443063 44.9988 1.07914C44.4692 1.71521 44.557 2.65893 45.195 3.18699L59.2145 14.7918C60.3707 15.7488 62.122 14.929 62.122 13.4307V1.62704C62.122 0.800334 61.4499 0.130157 60.6207 0.130157C59.7916 0.130157 59.1195 0.800334 59.1195 1.62704V10.8221Z"
          fill="white"/>
    <path fill-rule="evenodd" clip-rule="evenodd"
          d="M150.562 10.8221L138.556 0.883564C137.918 0.355502 136.971 0.443063 136.442 1.07914C135.912 1.71521 136 2.65893 136.638 3.18699L150.657 14.7918C151.814 15.7488 153.565 14.929 153.565 13.4307V1.62704C153.565 0.800334 152.893 0.130157 152.064 0.130157C151.235 0.130157 150.562 0.800334 150.562 1.62704V10.8221Z"
          fill="white"/>
    <path fill-rule="evenodd" clip-rule="evenodd"
          d="M77.9454 0.26577H77.9551C81.7411 0.26577 84.1882 1.78948 85.2187 2.94546C85.7696 3.56334 85.7137 4.50948 85.094 5.05871C84.4743 5.60794 83.5254 5.55229 82.9746 4.9344C82.5498 4.45794 80.9419 3.26214 77.9648 3.25953C76.4349 3.28106 74.1305 3.78793 72.2491 5.14311C70.4356 6.44932 68.9474 8.58205 68.9474 12.1047C68.9474 15.1406 70.2701 17.2376 72.0377 18.6132C73.8538 20.0265 76.1502 20.6778 77.9551 20.6778C79.4595 20.6778 80.5497 20.3911 81.403 19.9845C82.1124 19.6464 82.7086 19.2016 83.2778 18.6801V16.4593H77.6821C76.853 16.4593 76.1808 15.7891 76.1808 14.9624C76.1808 14.1357 76.853 13.4655 77.6821 13.4655H84.5061C85.486 13.4655 86.2803 14.2576 86.2803 15.2346V19.2042C86.2803 19.6711 86.0949 20.1253 85.7542 20.4611C84.9499 21.2536 83.9814 22.0738 82.6979 22.6855C81.4051 23.3016 79.8669 23.6715 77.9551 23.6715C75.5291 23.6715 72.571 22.8259 70.1904 20.9733C67.7613 19.083 65.9449 16.145 65.9449 12.1047C65.9449 7.57147 67.937 4.55584 70.4908 2.71633C72.9728 0.928601 75.9173 0.291696 77.9358 0.265893L77.9454 0.26577Z"
          fill="white"/>
    <path fill-rule="evenodd" clip-rule="evenodd"
          d="M76.0462 8.70309C76.0462 7.87639 76.7183 7.20621 77.5475 7.20621H84.7809C85.61 7.20621 86.2821 7.87639 86.2821 8.70309C86.2821 9.5298 85.61 10.2 84.7809 10.2H77.5475C76.7183 10.2 76.0462 9.5298 76.0462 8.70309Z"
          fill="white"/>
    <path fill-rule="evenodd" clip-rule="evenodd"
          d="M118.76 20.6778C123.584 20.6778 127.494 16.7786 127.494 11.9686C127.494 7.15873 123.584 3.25953 118.76 3.25953C113.936 3.25953 110.025 7.15873 110.025 11.9686C110.025 16.7786 113.936 20.6778 118.76 20.6778ZM118.76 23.6715C125.242 23.6715 130.497 18.432 130.497 11.9686C130.497 5.50533 125.242 0.26577 118.76 0.26577C112.277 0.26577 107.022 5.50533 107.022 11.9686C107.022 18.432 112.277 23.6715 118.76 23.6715Z"
          fill="white"/>
</svg>
