<svg width="24" height="25" viewBox="0 0 24 25" fill="none"
     xmlns="http://www.w3.org/2000/svg">
    <path d="M11.034 1.12746C11.0195 0.989366 11.1278 0.869812 11.2666 0.869812H12.7334C12.8722 0.869812 12.9805 0.989366 12.966 1.12746C12.9001 1.75577 12.7352 3.40391 12.6879 4.61504C12.6395 5.85427 12.6699 7.76296 12.6829 8.42785C12.6855 8.55866 12.5802 8.66599 12.4493 8.66599H11.5507C11.4198 8.66599 11.3145 8.55866 11.3171 8.42785C11.3301 7.76296 11.3606 5.85427 11.3121 4.61504C11.2648 3.40391 11.0999 1.75577 11.034 1.12746Z"
          fill="white"/>
    <path d="M23.7424 11.9038C23.8804 11.8893 24 11.9976 24 12.1365V13.6032C24 13.742 23.8804 13.8503 23.7423 13.8358C23.114 13.7699 21.4659 13.6051 20.2548 13.5577C19.0155 13.5093 17.1069 13.5398 16.442 13.5527C16.3112 13.5553 16.2038 13.45 16.2038 13.3192V12.4205C16.2038 12.2896 16.3112 12.1844 16.442 12.1869C17.1069 12.1999 19.0155 12.2304 20.2548 12.1819C21.4659 12.1346 23.114 11.9698 23.7424 11.9038Z"
          fill="white"/>
    <path d="M19.62 3.88363C19.7074 3.77573 19.8685 3.76778 19.9667 3.86596L21.0038 4.90309C21.102 5.00127 21.0941 5.1624 20.9862 5.24979C20.4953 5.64742 19.2133 6.6963 18.3234 7.51921C17.4129 8.36123 16.0848 9.73244 15.6238 10.2118C15.5331 10.3061 15.3828 10.3075 15.2903 10.215L14.6548 9.57952C14.5623 9.48701 14.5638 9.33667 14.6581 9.24598C15.1374 8.785 16.5086 7.45691 17.3506 6.54638C18.1735 5.6565 19.2224 4.37455 19.62 3.88363Z"
          fill="white"/>
    <path d="M12.966 24.6122C12.9805 24.7503 12.8722 24.8698 12.7334 24.8698H11.2666C11.1278 24.8698 11.0195 24.7503 11.034 24.6122C11.0999 23.9839 11.2648 22.3357 11.3121 21.1246C11.3606 19.8854 11.3301 17.9767 11.3171 17.3118C11.3145 17.181 11.4198 17.0736 11.5507 17.0736H12.4493C12.5802 17.0736 12.6855 17.181 12.6829 17.3118C12.6699 17.9767 12.6395 19.8854 12.6879 21.1246C12.7352 22.3357 12.9001 23.9839 12.966 24.6122Z"
          fill="white"/>
    <path d="M20.9862 20.4898C21.0941 20.5772 21.102 20.7383 21.0038 20.8365L19.9667 21.8736C19.8685 21.9718 19.7074 21.9639 19.62 21.856C19.2224 21.3651 18.1735 20.0831 17.3506 19.1932C16.5086 18.2827 15.1374 16.9546 14.658 16.4936C14.5638 16.4029 14.5623 16.2526 14.6548 16.1601L15.2903 15.5246C15.3828 15.4321 15.5331 15.4336 15.6238 15.5279C16.0848 16.0072 17.4129 17.3784 18.3234 18.2204C19.2133 19.0433 20.4953 20.0922 20.9862 20.4898Z"
          fill="white"/>
    <path d="M0.25765 13.8358C0.119554 13.8503 -6.06954e-09 13.742 0 13.6032L6.41125e-08 12.1365C7.0182e-08 11.9976 0.119554 11.8893 0.25765 11.9038C0.885955 11.9698 2.5341 12.1346 3.74522 12.1819C4.98446 12.2304 6.89315 12.1999 7.55804 12.1869C7.68885 12.1844 7.79618 12.2896 7.79618 12.4205V13.3192C7.79618 13.45 7.68885 13.5553 7.55804 13.5527C6.89315 13.5398 4.98446 13.5093 3.74522 13.5577C2.5341 13.6051 0.885954 13.7699 0.25765 13.8358Z"
          fill="white"/>
    <path d="M4.37999 21.856C4.29259 21.9639 4.13147 21.9718 4.03328 21.8736L2.99616 20.8365C2.89797 20.7383 2.90592 20.5772 3.01382 20.4898C3.50475 20.0922 4.7867 19.0433 5.67657 18.2204C6.5871 17.3784 7.91519 16.0072 8.37617 15.5279C8.46686 15.4336 8.6172 15.4321 8.70971 15.5246L9.34519 16.1601C9.4377 16.2526 9.43625 16.4029 9.34195 16.4936C8.86263 16.9546 7.49142 18.2827 6.64941 19.1932C5.82649 20.0831 4.77762 21.3651 4.37999 21.856Z"
          fill="white"/>
</svg>
